# xmcd
#
# Track frame offsets: 
#        150
#        19120
#        47435
#        69630
#        88262
#        101097
#        122797
#        140747
#        161809
#        191826
#        212213
#        231910
#        254922
#
# Disc length: 3561 seconds
#
# Revision: 0
# Processed by: cddbd v1.5.2PL0 Copyright (c) Steve Scherf et al.
# Submitted via: ExactAudioCopy v1.0b1
#
DISCID=cc0de70d
DTITLE=Dr. John - Ske-Dat-De-Dat The Spirit of Satch
DYEAR=2014
DGENRE=Blues
TTITLE0=What A Wonderful World
TTITLE1=Mack The Knife
TTITLE2=Tight Like This
TTITLE3=I've Got The World On A String
TTITLE4=Gut Bucket Blues
TTITLE5=Sometimes I Feel Like A Motherless Child
TTITLE6=That's My Home
TTITLE7=Nobody Knows The Trouble I've Seen
TTITLE8=Wrap Your Troubles In Dreams
TTITLE9=Dippermouth Blues
TTITLE10=Sweet Hunk O'Trash
TTITLE11=Memories Of You
TTITLE12=When You're Smiling (The Whole World Smiles With You)
EXTD=
EXTT0=
EXTT1=
EXTT2=
EXTT3=
EXTT4=
EXTT5=
EXTT6=
EXTT7=
EXTT8=
EXTT9=
EXTT10=
EXTT11=
EXTT12=
PLAYORDER=
